<?xml version="1.0" encoding="UTF-8"?><svg id="Calque_2" xmlns="http://www.w3.org/2000/svg" viewBox="0 0 59.35 21.2"><defs><style>.cls-1{fill:#7c7c7b;}.cls-2{fill:#1d1d1b;}</style></defs><g id="Calque_1-2"><g><path class="cls-1" d="M23.49,20.84h.96v-5.64h-.96v5.64Zm3.2-2.3c0-.46,.39-.82,.84-.82s.83,.32,.83,.86v2.26h.96v-2.41c0-.95-.7-1.5-1.58-1.5-.54,0-.92,.22-1.13,.46v-.35h-.88v3.8h.96v-2.3Zm5.11,2.66l2.03-4.16h-1.01l-1.02,2.26-1.02-2.26h-1.02l2.04,4.16Zm3.27-1.5c0-.46,.62-.66,1.51-.54v.47c-.25,.32-.59,.51-1,.51-.3,0-.51-.13-.51-.45m2.47-1.33c0-.72-.4-1.07-.79-1.26-.24-.12-.59-.18-.94-.18-.49,0-1.03,.13-1.52,.5l.31,.8c.46-.37,.8-.5,1.19-.5s.78,.19,.78,.75c-.13-.02-.31-.03-.56-.03-1.28,0-1.91,.5-1.91,1.29s.61,1.22,1.34,1.22c.42,0,.88-.17,1.22-.53v.42h.88v-2.47Zm1.24,2.47h.96v-5.61h-.96v5.61Zm2.1-5.01c0,.33,.26,.58,.59,.58s.59-.26,.59-.58-.26-.6-.59-.6-.59,.26-.59,.6m.11,5.01h.96v-3.8h-.96v3.8Zm4.02-.69c-.61,0-1.12-.54-1.12-1.22s.51-1.22,1.12-1.22,1.12,.42,1.12,1.22-.52,1.22-1.12,1.22m-.18,.8c.54,0,1.01-.16,1.38-.52v.41h.88v-5.61h-.96v2.18c-.3-.3-.76-.48-1.3-.48-1.05,0-1.9,.8-1.9,2.01s.86,2.02,1.9,2.02m6.21-1.34c-.26,.35-.62,.54-1.04,.54-.51,0-.95-.38-1.06-.9h2.9v-.29c0-1.23-.69-2.03-1.87-2.03s-1.97,.84-1.97,2.01,.76,2.02,1.9,2.02c.63,0,1.12-.18,1.6-.62l-.46-.73Zm-1.07-1.89c.55,0,.83,.34,.9,.82h-1.89c.12-.5,.52-.82,.99-.82m4.09,1.7c.3,.09,.42,.19,.42,.38,0,.24-.24,.38-.54,.38-.48,0-.9-.2-1.21-.42l-.25,.8c.31,.22,.8,.39,1.38,.39,.91,0,1.52-.51,1.52-1.25,0-.62-.4-.95-1.05-1.13l-.6-.17c-.26-.08-.35-.18-.35-.36,0-.2,.16-.33,.45-.33s.68,.07,1.1,.27l.21-.79c-.38-.15-.78-.26-1.26-.26-.86,0-1.41,.48-1.41,1.2,0,.53,.26,.91,.81,1.07l.77,.22Z"/><path class="cls-2" d="M22.13,12.67c-.61,0-1.12-.54-1.12-1.22s.51-1.22,1.12-1.22,1.12,.42,1.12,1.22-.52,1.22-1.12,1.22m-.18,.8c.54,0,1.01-.16,1.38-.52v.41h.88V7.75h-.96v2.18c-.3-.3-.76-.48-1.3-.48-1.05,0-1.9,.8-1.9,2.01s.86,2.02,1.9,2.02m6.21-1.34c-.26,.35-.62,.54-1.04,.54-.51,0-.95-.38-1.06-.9h2.9v-.29c0-1.23-.69-2.03-1.87-2.03s-1.97,.84-1.97,2.01,.76,2.02,1.9,2.02c.63,0,1.12-.18,1.6-.62l-.46-.73Zm-1.07-1.89c.55,0,.83,.34,.9,.82h-1.89c.12-.5,.52-.82,.99-.82m4.67,3.12h.96V7.75h-.96v5.61Zm2.75-3.43l.36-.46c.28-.36,.52-.71,.52-1.05,0-.4-.28-.67-.66-.67-.33,0-.61,.29-.61,.59s.14,.43,.33,.56l-.54,1.02h.59Zm3.99,1.3h-1.42l.71-1.55,.71,1.55Zm-3.43,2.14h1.03l.59-1.3h2.19l.6,1.3h1.06l-2.74-5.89-2.73,5.89Zm7.19-2.59c.24-.3,.6-.42,.87-.42,.22,0,.41,.06,.51,.1l.08-.97c-.14-.02-.33-.03-.44-.03-.47,0-.83,.21-1.1,.59v-.48h-.88v3.8h.96v-2.59Zm3.22,.22c0-.41,.31-.74,.68-.74s.67,.29,.67,.78v2.34h.96v-2.38c0-.41,.31-.74,.68-.74s.67,.29,.67,.78v2.34h.96v-2.41c0-.98-.62-1.5-1.5-1.5-.54,0-.9,.15-1.18,.43-.26-.28-.63-.43-1.05-.43-.46,0-.78,.21-.97,.45v-.34h-.88v3.8h.96v-2.38Zm7.73-2.02l1.09-1.21h-1.27l-.48,1.21h.66Zm.86,3.17c-.26,.35-.62,.54-1.04,.54-.51,0-.95-.38-1.06-.9h2.9v-.29c0-1.23-.69-2.03-1.87-2.03s-1.97,.84-1.97,2.01,.76,2.02,1.9,2.02c.63,0,1.12-.18,1.6-.62l-.46-.73Zm-1.07-1.89c.55,0,.83,.34,.9,.82h-1.89c.12-.5,.52-.82,.99-.82m5.55,1.89c-.26,.35-.62,.54-1.04,.54-.51,0-.95-.38-1.06-.9h2.9v-.29c0-1.23-.69-2.03-1.87-2.03s-1.97,.84-1.97,2.01,.76,2.02,1.9,2.02c.63,0,1.12-.18,1.6-.62l-.46-.73Zm-1.07-1.89c.55,0,.83,.34,.9,.82h-1.89c.12-.5,.52-.82,.99-.82"/><path class="cls-2" d="M22.99,2.81v3.09h.96V0l-3.01,4.02L17.87,0V5.89h.96V2.81l2.11,2.77,2.05-2.77Zm4.79,3.09h.88V2.1h-.96v2.3c0,.46-.35,.82-.76,.82s-.75-.32-.75-.86V2.1h-.96v2.41c0,.95,.66,1.5,1.5,1.5,.5,0,.86-.22,1.05-.46v.34Zm3.38-1.42c.3,.09,.42,.19,.42,.38,0,.24-.24,.38-.54,.38-.48,0-.9-.2-1.21-.42l-.25,.8c.31,.22,.8,.39,1.38,.39,.91,0,1.52-.51,1.52-1.25,0-.62-.4-.95-1.05-1.14l-.6-.17c-.26-.08-.35-.18-.35-.36,0-.2,.16-.33,.45-.33s.68,.07,1.1,.27l.21-.79c-.38-.15-.78-.26-1.26-.26-.86,0-1.41,.48-1.41,1.2,0,.53,.26,.91,.81,1.07l.77,.22Zm4.15-2.98l1.09-1.21h-1.27l-.48,1.21h.66Zm.86,3.17c-.26,.35-.62,.54-1.04,.54-.51,0-.95-.38-1.06-.9h2.9v-.29c0-1.23-.69-2.03-1.87-2.03s-1.97,.84-1.97,2.01,.76,2.02,1.9,2.02c.63,0,1.12-.18,1.6-.62l-.46-.73Zm-1.07-1.89c.55,0,.83,.34,.9,.82h-1.89c.12-.5,.52-.82,.99-.82m5.55,1.89c-.26,.35-.62,.54-1.04,.54-.51,0-.95-.38-1.06-.9h2.9v-.29c0-1.23-.69-2.03-1.87-2.03s-1.97,.84-1.97,2.01,.76,2.02,1.9,2.02c.63,0,1.12-.18,1.6-.62l-.46-.73Zm-1.07-1.89c.55,0,.83,.34,.9,.82h-1.89c.12-.5,.52-.82,.99-.82"/><path class="cls-2" d="M11.12,14.56c.34,.49,.58,1.26,.65,2.15h1.14c-.16-.99-.96-1.87-1.79-2.15"/><path class="cls-2" d="M10.27,14.39c-.38,.26-.75,1.15-.75,2.32h1.51c0-1.21-.33-2.08-.75-2.32"/><path class="cls-2" d="M7.63,16.71h1.14c.07-.89,.31-1.66,.65-2.15-.89,.3-1.63,1.16-1.79,2.15"/><path class="cls-2" d="M7.7,.29L0,20.84H6.98v-2.87h6.67v2.87h6.89L12.84,.29H7.7Zm-.76,16.8c.08-1.44,1.07-2.63,2.4-3.02l-.24-.87,.44-.48v-1.05l.52-.44,.08-2.62h.24l.08,2.62,.52,.44v1.05l.44,.48-.24,.87c1.33,.38,2.33,1.58,2.4,3.02H6.94Z"/></g></g></svg>