<?xml version="1.0" encoding="UTF-8"?><svg id="Calque_2" xmlns="http://www.w3.org/2000/svg" viewBox="0 0 30.08 30.08"><defs><style>.cls-1{fill:#ddd;}.cls-2{fill:#353535;opacity:.84;}</style></defs><g id="Calque_1-2"><circle class="cls-2" cx="15.04" cy="15.04" r="15.04"/><path class="cls-1" d="M10.08,18.89l3.21-4.12-2.7-3.66c-.25-.36-.44-.66-.57-.92-.13-.26-.19-.5-.19-.74s.12-.46,.37-.65c.24-.19,.54-.29,.89-.29,.4,0,.72,.1,.94,.31,.23,.21,.54,.6,.93,1.17l2.15,3.06,2.3-3.06c.19-.26,.35-.48,.48-.66,.13-.18,.26-.34,.39-.46,.12-.12,.26-.21,.42-.27,.15-.06,.33-.09,.53-.09,.36,0,.66,.1,.89,.29,.23,.19,.35,.42,.35,.68,0,.38-.25,.91-.75,1.57l-2.83,3.72,3.04,4.12c.27,.36,.47,.66,.6,.9,.12,.24,.19,.46,.19,.67s-.06,.38-.17,.55c-.11,.17-.27,.3-.47,.4-.2,.1-.43,.15-.68,.15-.27,0-.5-.05-.69-.15-.19-.1-.34-.23-.46-.37-.12-.15-.34-.44-.65-.87l-2.52-3.49-2.68,3.6c-.21,.29-.36,.49-.44,.6s-.19,.23-.32,.34c-.12,.11-.27,.19-.44,.26-.17,.06-.37,.09-.6,.09-.35,0-.64-.09-.88-.28-.23-.19-.35-.46-.35-.83,0-.42,.24-.94,.71-1.56Z"/></g></svg>